# Blender v2.77 (sub 0) OBJ File: ''
# www.blender.org
mtllib frame.mtl
o Cube.001
v 1.092009 -0.693953 0.776234
v -0.907990 -0.693953 -1.223767
v 1.092009 -0.693953 -1.223766
v -0.907991 1.306047 -1.223766
v 1.092009 1.306047 0.776234
v 1.092010 1.306047 -1.223766
v -0.907991 -0.693953 0.776233
v -0.907991 1.306047 0.776233
vt 0.0001 0.9999
vt 0.9999 0.0001
vt 0.9999 0.9999
vt 0.0001 0.9999
vt 0.9999 0.0001
vt 0.9999 0.9999
vt 0.0001 0.0001
vt 0.0001 0.0001
vt 0.9999 0.9999
vt 0.9999 0.0001
vt 0.0001 0.0001
vt 0.9999 0.0001
vt 0.0001 0.9999
vt 0.0001 0.9999
vt 0.0001 0.0001
vt 0.9886 0.9999
vt 0.0001 0.9999
vt 0.9961 1.0040
vt 0.0053 -0.0072
vt 0.0039 1.0030
vt 0.9886 0.0001
vt 0.9963 -0.0074
vn 0.0000 -1.0000 -0.0000
vn -0.0000 1.0000 0.0000
vn -0.0000 -0.0000 1.0000
vn 0.0000 0.0000 -1.0000
vn 1.0000 -0.0000 0.0000
vn -1.0000 -0.0000 -0.0000
usemtl Material.001
s 1
f 1/1/1 2/2/1 3/3/1
f 4/4/2 5/5/2 6/6/2
f 1/1/1 7/7/1 2/2/1
f 4/4/2 8/8/2 5/5/2
usemtl Material.001_sword-frame.png
f 5/9/3 7/7/3 1/10/3
f 3/3/4 4/11/4 6/12/4
f 5/9/3 8/13/3 7/7/3
f 3/3/4 2/14/4 4/11/4
usemtl Material_sword-frame.png
f 6/15/5 1/16/5 3/17/5
f 7/18/6 4/19/6 2/20/6
f 6/15/5 5/21/5 1/16/5
f 7/18/6 8/22/6 4/19/6
